<?xml version="1.0" encoding="utf-8"?>
<svg version="1.1" xmlns="http://www.w3.org/2000/svg" xmlns:xlink="http://www.w3.org/1999/xlink" x="0px" y="0px" viewBox="0 0 128 128" xml:space="preserve">
		<g>
			<path fill="#673AB8" d="M127.31,83.45L65.64,44.42c-0.91-0.57-2.38-0.57-3.29,0L0.67,83.45c-0.91,0.57-0.91,1.51,0,2.08l61.67,39.03
				c0.91,0.57,2.38,0.57,3.29,0l61.67-39.03C128.22,84.96,128.22,84.02,127.31,83.45z"/>
		</g>
		<g>
			<path fill="#B83A7F" d="M127.31,63.45L65.64,24.42c-0.91-0.57-2.38-0.57-3.29,0L0.67,63.45c-0.91,0.57-0.91,1.51,0,2.08l61.67,39.03
				c0.91,0.57,2.38,0.57,3.29,0l61.67-39.03C128.22,64.96,128.22,64.02,127.31,63.45z"/>
		</g>
		<g>
			<path fill="#3A7FB8" d="M127.31,43.45L65.64,4.42c-0.91-0.57-2.38-0.57-3.29,0L0.67,43.45c-0.91,0.57-0.91,1.51,0,2.08l61.67,39.03
				c0.91,0.57,2.38,0.57,3.29,0l61.67-39.03C128.22,44.96,128.22,44.02,127.31,43.45z"/>
		</g>
</svg>
